<svg xmlns="http://www.w3.org/2000/svg" viewBox="0 0 480 300" font-family="Arial,sans-serif"><rect width="480" height="300" fill="#fdf3e7"/><rect x="24" y="22" width="432" height="256" rx="14" fill="#fff" stroke="#eadfd2"/><circle cx="46" cy="42" r="5" fill="#e3c9a9"/><circle cx="62" cy="42" r="5" fill="#e3c9a9"/><circle cx="78" cy="42" r="5" fill="#e3c9a9"/><rect x="44" y="62" width="80" height="28" rx="14" fill="#fdf3e7" stroke="#e0b98a"/><text x="58" y="81" font-size="13" fill="#8a5a2a">egg</text><rect x="136" y="62" width="80" height="28" rx="14" fill="#fdf3e7" stroke="#e0b98a"/><text x="150" y="81" font-size="13" fill="#8a5a2a">tomato</text><rect x="228" y="62" width="80" height="28" rx="14" fill="#fdf3e7" stroke="#e0b98a"/><text x="242" y="81" font-size="13" fill="#8a5a2a">onion</text><rect x="320" y="62" width="80" height="28" rx="14" fill="#fdf3e7" stroke="#e0b98a"/><text x="334" y="81" font-size="13" fill="#8a5a2a">rice</text><rect x="44" y="112" width="392" height="52" rx="10" fill="#fbf9f6" stroke="#eadfd2"/><text x="60" y="134" font-size="15" fill="#1f2937">Tomato omelette</text><rect x="60" y="144" width="230" height="8" rx="4" fill="#eadfd2"/><rect x="60" y="144" width="184" height="8" rx="4" fill="#b4621b"/><text x="380" y="142" font-size="14" fill="#b4621b">80%</text><rect x="44" y="172" width="392" height="52" rx="10" fill="#fbf9f6" stroke="#eadfd2"/><text x="60" y="194" font-size="15" fill="#1f2937">Egg fried rice</text><rect x="60" y="204" width="230" height="8" rx="4" fill="#eadfd2"/><rect x="60" y="204" width="138" height="8" rx="4" fill="#b4621b"/><text x="380" y="202" font-size="14" fill="#b4621b">60%</text><rect x="44" y="232" width="392" height="52" rx="10" fill="#fbf9f6" stroke="#eadfd2"/><text x="60" y="254" font-size="15" fill="#1f2937">Tomato rice</text><rect x="60" y="264" width="230" height="8" rx="4" fill="#eadfd2"/><rect x="60" y="264" width="92" height="8" rx="4" fill="#b4621b"/><text x="380" y="262" font-size="14" fill="#b4621b">40%</text></svg>